<svg id="_1170px_grid" data-name="1170px grid" xmlns="http://www.w3.org/2000/svg" viewBox="0 0 118.75 40"><defs><style>.cls-1{fill:#34495e;}</style></defs><title>blocbox_logo</title><path class="cls-1" d="M50.51.62q6.26,0,9.79,2.71t3.53,8.12a7.41,7.41,0,0,1-1.69,4.77,10,10,0,0,1-4.46,3.12,9.29,9.29,0,0,1,5.69,3.54,10.44,10.44,0,0,1,2.09,6.46q0,5.49-3.57,8.39t-9.67,2.9H33V37.16l4.48-.77V4.88L33,4.11,32.85.64l4.77,0Zm-7.64,17h9a7,7,0,0,0,4.71-1.73,5.87,5.87,0,0,0,1.8-4.56,5.8,5.8,0,0,0-2-4.85,9.31,9.31,0,0,0-5.88-1.61H42.87Zm0,4.23V36.39h9.34A8.35,8.35,0,0,0,58,34.56a6.58,6.58,0,0,0,2-5.18,8.22,8.22,0,0,0-1.72-5.52,6.55,6.55,0,0,0-5.26-2Z" transform="translate(-0.92 -0.62)"/><path class="cls-1" d="M11.32,20.86H8v4.7h3A2.7,2.7,0,0,0,12.92,25a2.13,2.13,0,0,0,.66-1.68A2.66,2.66,0,0,0,13,21.51,2.12,2.12,0,0,0,11.32,20.86Z" transform="translate(-0.92 -0.62)"/><path class="cls-1" d="M24.59,19.24a2,2,0,0,0-1.77.93,4.28,4.28,0,0,0-.6,2.34v.18a4.24,4.24,0,0,0,.6,2.35,2.16,2.16,0,0,0,3.54,0A4.22,4.22,0,0,0,27,22.7v-.18a4.23,4.23,0,0,0-.6-2.34A2,2,0,0,0,24.59,19.24Z" transform="translate(-0.92 -0.62)"/><path class="cls-1" d="M6.92.64a6,6,0,0,0-6,6v28a6,6,0,0,0,6,6h34V.64ZM14.19,26a4.82,4.82,0,0,1-3.13.94H4.84V25.81l1.45-.25V15.36l-1.45-.25V14h5.67a5.1,5.1,0,0,1,3.17.88,3.1,3.1,0,0,1,1.14,2.63A2.4,2.4,0,0,1,14.27,19a3.23,3.23,0,0,1-1.44,1,3,3,0,0,1,1.84,1.15,3.38,3.38,0,0,1,.68,2.09A3.29,3.29,0,0,1,14.19,26Zm6.15,1.09H16V26l1.35-.23V15.45L16,15.22V14.17h3V25.8l1.35.23ZM28.6,22.7A4.9,4.9,0,0,1,27.53,26a3.62,3.62,0,0,1-2.92,1.27A3.63,3.63,0,0,1,21.67,26,4.91,4.91,0,0,1,20.6,22.7v-.18a4.93,4.93,0,0,1,1.08-3.27A3.61,3.61,0,0,1,24.59,18a3.63,3.63,0,0,1,2.93,1.28,4.91,4.91,0,0,1,1.08,3.28Zm7.32,3.65a3.77,3.77,0,0,1-2.49.9,3.61,3.61,0,0,1-3-1.27,4.93,4.93,0,0,1-1-3.2v-.35a4.9,4.9,0,0,1,1-3.19,3.61,3.61,0,0,1,3-1.28,5,5,0,0,1,1.93.36,3.9,3.9,0,0,1,1.42,1l.07,2h-1.3l-.36-1.41a2.16,2.16,0,0,0-.74-.45,2.86,2.86,0,0,0-1-.17,2,2,0,0,0-1.83.92,4.34,4.34,0,0,0-.55,2.26v.35a4.4,4.4,0,0,0,.55,2.29,2,2,0,0,0,1.84.91,2.2,2.2,0,0,0,1.43-.5,1.53,1.53,0,0,0,.62-1.23h1.46l0,0A2.51,2.51,0,0,1,35.93,26.35Z" transform="translate(-0.92 -0.62)"/><path class="cls-1" d="M12.48,18.93a1.9,1.9,0,0,0,.58-1.48,1.88,1.88,0,0,0-.66-1.57,3,3,0,0,0-1.9-.52H8v4.12H11A2.27,2.27,0,0,0,12.48,18.93Z" transform="translate(-0.92 -0.62)"/><path class="cls-1" d="M66.93,26.08a15.13,15.13,0,0,1,3.3-10,11.07,11.07,0,0,1,9-3.95,11.15,11.15,0,0,1,9,3.94,15.08,15.08,0,0,1,3.31,10.06v.56a15.05,15.05,0,0,1-3.3,10.06,11.12,11.12,0,0,1-9,3.91,11.16,11.16,0,0,1-9-3.92,15.07,15.07,0,0,1-3.3-10Zm5,.56a13,13,0,0,0,1.84,7.21,6.63,6.63,0,0,0,10.88,0,13,13,0,0,0,1.85-7.21v-.56a13,13,0,0,0-1.85-7.19,6.61,6.61,0,0,0-10.9,0,13.13,13.13,0,0,0-1.83,7.19Z" transform="translate(-0.92 -0.62)"/><path class="cls-1" d="M92.21,36.87l2.95-.58,8.1-10.11L95.41,16.4l-2.95-.58V12.59h10.77v3.23l-2.49.3,5.13,6.6L111,16.1l-2.46-.28V12.59h10.85v3.23l-2.95.58-7.85,9.78,8.08,10.11,3,.58v3.2H108.9v-3.2l2.44-.28L106,29.68l-5.38,6.91,2.46.28v3.2H92.21Z" transform="translate(-0.92 -0.62)"/></svg>