<?xml version="1.0" encoding="utf-8"?>
<!-- Generator: Adobe Illustrator 21.1.0, SVG Export Plug-In . SVG Version: 6.00 Build 0)  -->
<svg version="1.1" id="_x31_170px_grid" xmlns="http://www.w3.org/2000/svg" xmlns:xlink="http://www.w3.org/1999/xlink" x="0px"
	 y="0px" viewBox="0 0 195.8 66" style="enable-background:new 0 0 195.8 66;" xml:space="preserve">
<style type="text/css">
	.st0{fill:#FFFFFF;}
</style>
<g>
	<path class="st0" d="M81.8,1.1c6.7,0,11.9,1.4,15.7,4.3c3.8,2.9,5.7,7.2,5.7,13c0,2.8-0.9,5.4-2.7,7.6c-1.8,2.2-4.2,3.9-7.2,5
		c3.8,0.8,6.9,2.7,9.1,5.7s3.3,6.4,3.3,10.3c0,5.9-1.9,10.3-5.7,13.4c-3.8,3.1-9,4.6-15.5,4.6H53.7v-5.5l7.2-1.2V7.9l-7.2-1.2
		l-0.2-5.5h7.6L81.8,1.1z M69.5,28.3H84c3.1-0.1,5.6-1,7.5-2.8s2.9-4.2,2.9-7.3c0-3.5-1.1-6.1-3.3-7.8c-2.2-1.7-5.3-2.6-9.4-2.6
		H69.5V28.3z M69.5,35.1v23.3h15c4,0,7-1,9.2-2.9c2.2-2,3.3-4.7,3.3-8.3c0-3.8-0.9-6.7-2.8-8.8c-1.8-2.1-4.6-3.2-8.4-3.2L69.5,35.1
		L69.5,35.1z"/>
	<g>
		<path class="st0" d="M19,33.5h-5.3V41h4.8c1.3,0,2.3-0.3,3-0.9c0.7-0.6,1.1-1.5,1.1-2.7s-0.3-2.2-0.9-2.9
			C21.1,33.9,20.2,33.5,19,33.5z"/>
		<path class="st0" d="M40.3,30.9c-1.3,0-2.2,0.5-2.8,1.5c-0.6,1-1,2.2-1,3.8v0.3c0,1.5,0.3,2.8,1,3.8c0.6,1,1.6,1.5,2.9,1.5
			c1.2,0,2.2-0.5,2.8-1.5s1-2.2,1-3.8v-0.3c0-1.5-0.3-2.8-1-3.8C42.5,31.4,41.5,30.9,40.3,30.9z"/>
		<path class="st0" d="M11.9,1.1c-5.3,0-9.6,4.3-9.6,9.6v44.8c0,5.3,4.3,9.6,9.6,9.6h54.4v-64C66.3,1.1,11.9,1.1,11.9,1.1z
			 M23.6,41.7c-1.2,1-2.9,1.5-5,1.5h-10v-1.8l2.3-0.4V24.7l-2.3-0.4v-1.8h2.3h6.8c2.2,0,3.9,0.5,5.1,1.4s1.8,2.3,1.8,4.2
			c0,0.9-0.3,1.7-0.9,2.5s-1.4,1.3-2.3,1.6c1.2,0.3,2.2,0.9,2.9,1.8c0.7,1,1.1,2.1,1.1,3.3C25.4,39.3,24.8,40.7,23.6,41.7z
			 M33.4,43.5h-6.9v-1.7l2.2-0.4V24.9l-2.2-0.4v-1.7h4.8v18.6l2.2,0.4v1.7H33.4z M46.7,36.5c0,2.1-0.6,3.9-1.7,5.2
			c-1.1,1.4-2.7,2-4.7,2s-3.6-0.7-4.7-2c-1.1-1.4-1.7-3.1-1.7-5.2v-0.3c0-2.1,0.6-3.9,1.7-5.2c1.1-1.4,2.7-2.1,4.7-2.1
			s3.5,0.7,4.7,2.1c1.2,1.4,1.7,3.1,1.7,5.2V36.5z M58.4,42.3c-1.1,1-2.5,1.4-4,1.4c-2.1,0-3.7-0.7-4.8-2c-1.1-1.4-1.6-3.1-1.6-5.1
			V36c0-2,0.6-3.7,1.7-5.1c1.1-1.4,2.7-2,4.8-2c1.1,0,2.2,0.2,3.1,0.6c0.9,0.4,1.7,0.9,2.3,1.6l0.1,3.2h-2.1L57.3,32
			c-0.3-0.3-0.7-0.5-1.2-0.7s-1-0.3-1.6-0.3c-1.4,0-2.3,0.5-2.9,1.5c-0.6,1-0.9,2.2-0.9,3.6v0.6c0,1.5,0.3,2.7,0.9,3.7
			c0.6,1,1.6,1.5,2.9,1.5c0.9,0,1.6-0.3,2.3-0.8s1-1.2,1-2H60v0.1C60.1,40.3,59.6,41.4,58.4,42.3z"/>
		<path class="st0" d="M20.9,30.4c0.6-0.6,0.9-1.4,0.9-2.4c0-1.1-0.4-2-1.1-2.5c-0.7-0.6-1.7-0.8-3-0.8h-4v6.6h4.7
			C19.4,31.3,20.2,31,20.9,30.4z"/>
	</g>
	<path class="st0" d="M108.1,41.9c0-6.5,1.8-11.9,5.3-16.1s8.3-6.3,14.4-6.3c6.1,0,10.9,2.1,14.4,6.3s5.3,9.6,5.3,16.1v0.9
		c0,6.6-1.8,11.9-5.3,16.1s-8.3,6.3-14.4,6.3s-10.9-2.1-14.4-6.3s-5.3-9.6-5.3-16.1C108.1,42.8,108.1,41.9,108.1,41.9z M116.1,42.8
		c0,4.7,1,8.5,3,11.6c2,3,4.9,4.6,8.8,4.6c3.8,0,6.7-1.5,8.7-4.6c2-3,3-6.9,3-11.6v-0.9c0-4.6-1-8.4-3-11.5s-4.9-4.6-8.7-4.6
		c-3.9,0-6.8,1.5-8.7,4.6c-2,3.1-2.9,6.9-2.9,11.5v0.9H116.1z"/>
	<path class="st0" d="M148.6,59.2l4.7-0.9l13-16.2l-12.6-15.7l-4.7-0.9v-5.2h17.3v5.2l-4,0.5l8.2,10.6l8.3-10.6l-3.9-0.4v-5.2h17.4
		v5.2l-4.7,0.9L174.9,42l12.9,16.2l4.8,0.9v5.1h-17.3v-5.1l3.9-0.4l-8.6-11.1L162,58.7l3.9,0.4v5.1h-17.3L148.6,59.2L148.6,59.2z"/>
</g>
</svg>
